<svg xmlns="http://www.w3.org/2000/svg" xmlns:xlink="http://www.w3.org/1999/xlink" viewBox="0 0 500 500">
<path d="M31,134.5c0-12.6,10.3-22.9,22.9-22.9h401.9c12.6,0,22.9,10.3,22.9,22.9v40.7c0,12.6-10.3,22.9-22.9,22.9
H53.9c-12.6,0-22.9-10.3-22.9-22.9C31,175.2,31,134.5,31,134.5z"/>
<rect x="5.6" y="86.2" width="498.5" height="107.3"/>
<path d="M31,287.5c0-12.6,10.3-22.9,22.9-22.9h401.9c12.6,0,22.9,10.3,22.9,22.9v40.7c0,12.6-10.3,22.9-22.9,22.9
H53.9c-12.6,0-22.9-10.3-22.9-22.9C31,328.2,31,287.5,31,287.5z"/>
<rect x="5.6" y="239.1" width="498.5" height="107.3"/>
<path d="M32,446.6c0-12.6,10.2-22.9,22.9-22.9h167.9c12.6,0,22.9,10.3,22.9,22.9v30.5c0,12.6-10.2,22.9-22.9,22.9
H54.9C42.3,500,32,489.7,32,477.1V446.6z"/>
<rect x="6.6" y="398.3" width="264.5" height="107.2"/>
</svg>
